<svg width="1180" height="628" viewBox="0 0 1180 628" fill="none" xmlns="http://www.w3.org/2000/svg">
<path fill-rule="evenodd" clip-rule="evenodd" d="M1179.19 0.974609L1179.27 336.677C1098.8 303.313 993.382 221.34 921.238 165.239L917.165 162.072C914.571 160.055 912.023 158.075 909.525 156.135C902.57 150.241 889.105 153.832 875.216 157.537C861.022 161.322 846.385 165.226 837.798 159.248C831.733 156.28 817.909 146.713 801.962 135.675C787.322 125.542 770.893 114.171 757.033 105.53C721.157 84.3242 705.706 93.9709 678.373 111.035C675.098 113.08 671.653 115.23 667.982 117.447C595.921 168.497 523.776 219.192 466.194 219.192C449.188 217.874 431.656 206.945 414.704 196.379C391.612 181.984 369.596 168.26 351.449 180.415C253.694 236.356 114.844 308.573 0.433492 338.901L0.349539 0.974609H1179.19Z" fill="white"/>
<path d="M1179.27 342.842L1179.2 449.975H0.272461L0.349539 344.532C26.8807 344.532 57.513 344.532 100.616 335.283C165.061 320.877 227.428 289.653 288.1 259.278C303.464 251.586 318.72 243.948 333.873 236.652C370.058 221.31 388.996 233.754 415.07 250.886L415.076 250.89C424.219 256.898 434.24 263.483 446.191 269.647C512.477 305.311 595.753 344.087 662.123 347.111C636.637 339.385 600.387 315.357 576.451 299.492C573.111 297.278 570.011 295.223 567.213 293.393C520.763 263.422 529.467 254.617 567.213 233.984C572.284 231.209 578.023 227.888 583.864 224.508L583.915 224.479L583.979 224.441L583.999 224.429L584.025 224.414L584.04 224.405C591.061 220.342 598.221 216.199 604.541 212.816C606.785 211.279 608.966 209.781 611.09 208.32C612.64 207.255 614.16 206.209 615.654 205.181C635.56 191.485 650.715 181.058 667.982 171.016C708.155 144.157 711.084 144.157 751.258 165.324C783.196 182.909 814.178 203.386 844.96 223.731C892.021 254.835 938.617 285.632 987.444 305.311C981.62 299.346 972.182 292.431 961.584 284.667L961.579 284.663C929.992 261.522 888.1 230.832 900.82 195.207C903.75 185.957 926.933 200.899 926.933 200.899C942.135 209.865 959.863 222.991 979.806 237.757C1032.66 276.887 1101.07 327.539 1179.27 342.842Z" fill="white"/>
<path d="M0.272461 624.939L0.272461 494.156H59.6813C73.906 494.156 86.3735 496.834 97.2512 502.272C108.129 507.711 116.58 515.326 122.688 525.032C128.796 534.822 131.809 546.285 131.809 559.506C131.809 572.726 128.796 584.19 122.688 593.98C116.58 603.77 108.129 611.384 97.2512 616.739C86.3735 622.178 73.906 624.856 59.6813 624.856H0.272461V624.939ZM30.73 600.255H58.1752C66.8774 600.255 74.4917 598.582 80.851 595.318C87.2939 592.055 92.2307 587.286 95.8287 581.094C99.3431 574.902 101.184 567.706 101.184 559.506C101.184 551.138 99.4267 543.942 95.8287 537.834C92.3144 531.726 87.2939 527.04 80.851 523.693C74.4081 520.43 66.8774 518.756 58.1752 518.756H30.73L30.73 600.255Z" fill="white"/>
<path d="M217.491 627.115C198.915 627.115 184.439 621.927 173.98 611.635C163.521 601.343 158.249 586.449 158.249 567.204V494.156H188.707V566.451C188.707 578.751 191.217 587.704 196.405 593.227C201.509 598.749 208.621 601.51 217.742 601.51C226.946 601.51 234.142 598.749 239.246 593.227C244.35 587.704 246.944 578.751 246.944 566.451V494.156H276.648V567.204C276.648 586.533 271.461 601.343 260.918 611.635C250.375 622.011 235.899 627.115 217.491 627.115Z" fill="white"/>
<path d="M354.466 627.109C344.007 627.109 333.966 625.686 324.26 622.925C314.637 620.164 306.855 616.482 300.998 611.964L311.29 589.204C316.729 593.221 323.339 596.484 331.121 598.994C338.819 601.588 346.601 602.843 354.466 602.843C360.407 602.843 365.26 602.258 368.942 601.003C372.623 599.747 375.301 598.074 377.058 596.066C378.815 593.974 379.652 591.631 379.652 588.87C379.652 585.355 378.313 582.594 375.552 580.586C372.791 578.578 369.193 576.821 364.591 575.565C360.072 574.227 355.052 572.972 349.697 571.8C344.341 570.629 338.986 569.206 333.547 567.533C328.109 565.859 323.172 563.6 318.57 560.839C314.051 557.994 310.453 554.396 307.692 549.794C305.014 545.275 303.676 539.585 303.676 532.724C303.676 525.277 305.684 518.416 309.617 512.224C313.633 506.032 319.657 501.095 327.858 497.497C335.974 493.815 346.266 491.975 358.566 491.975C366.766 491.975 374.883 492.979 382.915 494.987C390.948 496.995 397.977 499.84 403.918 503.605L394.379 526.365C388.522 523.018 382.497 520.508 376.221 518.834C370.029 517.161 364.005 516.324 358.315 516.324C352.374 516.324 347.521 516.993 343.923 518.248C340.325 519.587 337.647 521.344 335.974 523.604C334.3 525.863 333.464 528.373 333.464 531.051C333.464 534.565 334.803 537.326 337.564 539.418C340.325 541.51 343.923 543.183 348.441 544.355C352.96 545.526 357.897 546.698 363.419 547.869C368.858 549.041 374.297 550.547 379.652 552.304C385.007 554.061 389.944 556.237 394.379 558.914C398.897 561.592 402.495 565.19 405.34 569.792C408.185 574.31 409.524 580 409.524 586.694C409.524 594.058 407.516 600.751 403.416 606.86C399.399 612.968 393.207 617.905 385.007 621.586C377.058 625.268 366.766 627.109 354.466 627.109Z" fill="white"/>
<path d="M460.398 624.933V518.75H418.561V494.066H532.525V518.75H490.688V624.933H460.398Z" fill="white"/>
<path d="M733.429 525.026C727.321 515.236 718.786 507.538 707.992 502.266C698.955 497.748 688.914 495.07 677.535 494.317C671.008 495.154 665.067 498.166 660.549 502.685C656.365 506.868 653.353 512.558 652.265 518.75H668.833C677.618 518.75 685.149 520.424 691.508 523.687C697.7 526.866 702.553 531.218 705.984 536.991C706.068 536.991 706.068 537.075 706.151 537.158C706.235 537.326 706.402 537.577 706.486 537.744C710 543.852 711.841 551.048 711.841 559.416C711.841 567.7 710 574.896 706.486 581.004C706.235 581.506 705.9 581.924 705.566 582.426C702.219 587.949 697.449 592.133 691.508 595.145C685.149 598.492 677.535 600.165 668.833 600.165H641.387V493.982H639.714C631.346 494.317 623.816 497.915 618.209 503.438C612.269 509.379 610.93 517.662 610.93 526.699V624.849H670.339C684.563 624.849 697.031 622.088 707.825 616.649C718.702 611.21 727.154 603.68 733.262 593.89C739.37 584.184 742.382 572.636 742.382 559.416C742.55 546.279 739.537 534.732 733.429 525.026Z" fill="white"/>
<path d="M828.149 627.115C809.573 627.115 795.097 621.927 784.638 611.635C774.179 601.343 768.907 586.449 768.907 567.204V494.156H799.365V566.451C799.365 578.751 801.959 587.704 807.063 593.227C812.167 598.749 819.279 601.51 828.4 601.51C837.604 601.51 844.8 598.749 849.904 593.227C855.008 587.704 857.602 578.751 857.602 566.451V494.156H887.307V567.204C887.307 586.533 882.035 601.343 871.576 611.635C861.033 622.011 846.557 627.115 828.149 627.115Z" fill="white"/>
<path d="M1041.93 494.066V624.933H1016.92L951.901 545.526V624.933H921.945V494.066H947.048L1012.06 573.473V494.066H1041.93Z" fill="white"/>
<path d="M1178.91 600.584V624.933H1077.66V494.066H1176.48V518.332H1107.7V546.614H1168.45V570.293H1107.7V600.584H1178.91Z" fill="white"/>
</svg>
